<?xml version="1.0" encoding="utf-8"?>
<!-- Generator: Adobe Illustrator 16.0.0, SVG Export Plug-In . SVG Version: 6.00 Build 0)  -->
<!DOCTYPE svg PUBLIC "-//W3C//DTD SVG 1.1//EN" "http://www.w3.org/Graphics/SVG/1.1/DTD/svg11.dtd">
<svg version="1.1" id="Layer_1" xmlns="http://www.w3.org/2000/svg" xmlns:xlink="http://www.w3.org/1999/xlink" x="0px" y="0px"
	  viewBox="0 0 530 225" enable-background="new 0 0 530 225" xml:space="preserve">
<g>
	<path fill="#EB8923" d="M324.156,1.425h96.33v57.744h-96.33V1.425z"/>
	<path fill="#FAC712" d="M216.88,30.209h96.33V59.08h-96.33V30.209L216.88,30.209z"/>
	<path fill="#612268" d="M109.513,14.315h96.328V59.08h-96.328V14.315z"/>
	<path fill="#3199CD" d="M1.792,43.453h96.772v15.716H1.792V43.453z"/>
	<path fill="#C33626" d="M431.436,36.036h96.685V59.08h-96.685V36.036z"/>
	<path fill="#EB8923" d="M324.156,170.95h96.33v31.522h-96.33V170.95z"/>
	<path fill="#FAC712" d="M216.88,170.95h96.33v52.625h-96.33V170.95L216.88,170.95z"/>
	<path fill="#612268" d="M109.513,170.95h96.328v31.522h-96.328V170.95z"/>
	<path fill="#3199CD" d="M1.792,170.95h96.772v43.708H1.792V170.95z"/>
	<path fill="#C33626" d="M431.436,170.95h96.685v17.129h-96.685V170.95z"/>
	<path fill="#030404" d="M88.499,151.88V94.664H66.866V78.153h63.307v16.422h-21.808v57.216H88.499V151.88z M30.224,152.497
		c-17.041,0-27.548-7.683-27.989-7.947l-0.442-0.44l5.828-17.924l0.884,0.883c0.087,0.09,9.094,8.478,22.779,8.478
		c9.712,0,11.037-2.647,11.037-5.208c0-4.682-6.357-6.359-13.686-8.301c-10.859-2.913-24.457-6.623-24.457-22.163
		c0-14.568,10.419-22.604,29.402-22.604c12.626,0,24.193,5.916,28.696,14.746l0.266,0.618l-15.363,9.712l-0.442-0.618
		c-3.169-4.783-8.566-7.614-14.303-7.505c-7.417,0-7.417,3.355-7.417,4.414c0,4.238,6.003,5.916,12.979,7.946
		c11.214,3.003,25.165,6.888,25.165,23.047c0,15.009-10.418,22.427-31.786,22.957h-1.236L30.224,152.497z M140.593,151.88V78.153
		h19.955v73.727H140.593z M192.599,151.88V94.664h-21.544V78.153h63.218v16.422h-21.808v57.216h-19.866V151.88z M361.243,151.88
		v-28.344h-28.345v28.344h-19.956V78.153h19.956v29.489h28.255V78.153h20.042v73.727H361.243L361.243,151.88z M274.889,152.587
		c-25.25,0-39.203-13.511-39.203-37.968c0-22.957,15.011-37.084,39.203-37.084c25.075,0,30.021,14.127,30.198,14.745l0.175,0.529
		l-15.449,9.712l-0.441-0.705c0-0.089-4.682-7.505-14.482-7.505c-12.713,0-18.894,6.621-18.894,20.308
		c0,13.42,6.71,21.015,18.894,21.189h0.266c8.83,0,14.305-7.506,14.395-7.593l0.353-0.618l15.452,9.448l-0.265,0.617
		c-0.268,0.618-5.916,15.009-30.198,15.009v-0.085H274.889z M391.79,151.88V78.153h58.099v15.98h-38.142v13.245h23.134v15.099
		h-23.134v13.422h38.142v15.98L391.79,151.88L391.79,151.88z M494.215,114.354h-14.66V94.133h14.66
		c7.945,0,11.829,3.268,11.829,10.066C506.044,110.997,502.16,114.354,494.215,114.354z M512.226,126.361
		c8.479-4.59,12.805-12.186,12.805-22.78c0-16.422-10.949-25.428-30.814-25.428h-34.612v73.727h19.952v-21.543h13.069l12.098,21.543
		h23.485l-15.892-25.604L512.226,126.361z"/>
</g>
</svg>
