<svg version="1.1" xmlns="http://www.w3.org/2000/svg" xmlns:xlink="http://www.w3.org/1999/xlink" x="0px" y="0px" viewBox="28.82 193.83 463.94 119.03" style="enable-background:new 0 0 512 512;" xml:space="preserve">
<style type="text/css">
	.st0{fill:none;stroke:#000000;stroke-width:1.6933;stroke-miterlimit:10;}
	.st1{fill:none;stroke:#000000;stroke-width:1.8394;stroke-miterlimit:10;}
	.st2{fill:none;stroke:#000000;stroke-width:1.3728;stroke-miterlimit:10;}
	.st3{fill:#CB2026;}
	.st4{fill:#FFFFFF;}
	.st5{fill:none;stroke:#FFFFFF;stroke-width:2.8887;stroke-miterlimit:10;}
	.st6{fill:none;stroke:#FFFFFF;stroke-width:3.6775;stroke-miterlimit:10;}
	.st7{fill:none;stroke:#FFFFFF;stroke-width:4.6805;stroke-miterlimit:10;}
	.st8{fill:none;stroke:#000000;stroke-width:6;stroke-miterlimit:10;}
	.st9{fill:#CC2127;}
	.st10{fill:#606161;}
	.st11{fill:none;stroke:#CB2026;stroke-width:17;stroke-linecap:round;stroke-miterlimit:10;}
	.st12{fill:none;stroke:#CB2026;stroke-width:17.0296;stroke-linecap:round;stroke-miterlimit:10;}
	.st13{opacity:0.09;}
	.st14{opacity:0.72;fill:#606161;}
	.st15{fill:none;stroke:#000000;stroke-width:4;stroke-linecap:round;stroke-miterlimit:10;}
	.st16{opacity:0.48;fill:#CB2026;}
	.st17{opacity:0.91;fill:#606161;}
	.st18{opacity:0.91;fill:none;stroke:#606161;stroke-width:10;stroke-miterlimit:10;}
	.st19{fill:none;stroke:#606161;stroke-width:6.5274;stroke-miterlimit:10;}
	.st20{fill:none;stroke:#606161;stroke-width:7;stroke-miterlimit:10;}
	.st21{opacity:0.91;fill:#FFFFFF;}
	.st22{opacity:0.48;fill:none;stroke:#14150C;stroke-width:2;stroke-miterlimit:10;}
	.st23{fill:#DF3034;}
	.st24{fill:#1A304D;}
	.st25{fill:#DC2727;}
	.st26{fill:#060707;}
	.st27{fill:#D7282F;}
	.st28{font-family:'IndustryInc-Base';}
	.st29{font-size:53.2646px;}
	.st30{fill:none;stroke:#000000;stroke-width:0.9324;stroke-miterlimit:10;}
</style>
<g id="Layer_1">
</g>
<g id="Layer_2">
	<g>
		<g>
			<text transform="matrix(1 0 0 1 232.1475 250.7168)"><tspan x="0" y="0" class="st25 st28 st29">REDSHIRT</tspan><tspan x="0" y="48.81" class="st25 st28 st29">SPORTS</tspan></text>
		</g>
		<g>
			<g>
				<g>
					<path class="st25" d="M138.04,226.16c-0.47-0.56-0.67-1.3-0.55-2.02l0,0c0.12-0.72,2.54-14.82,3.54-20.71
						c0.31-1.81,1.63-3.27,3.4-3.76c1.25-0.35,2.56-0.67,4-0.94c2.1-0.39,4.27,0.16,5.94,1.5c1.14,0.92,2.15,1.84,3.1,2.75
						c1.33,1.27,1.79,3.19,1.2,4.94c-1.65,4.87-5.57,16.37-6.76,19.89c-0.23,0.69-0.76,1.23-1.44,1.5
						c-1.46,0.57-4.06,1.53-5.74,2.13c-0.96,0.35-2.02,0.08-2.69-0.69C140.86,229.43,139.04,227.36,138.04,226.16z"></path>
				</g>
				<g>
					<path class="st25" d="M115.23,225.94c-0.53-0.42-0.86-1.04-0.91-1.72c-0.3-3.82-1.38-17.56-1.83-23.19
						c-0.14-1.76,0.71-3.46,2.21-4.38c1.13-0.7,2.32-1.38,3.65-2.05c2.05-1.03,4.46-1.03,6.51,0c1.32,0.67,2.51,1.35,3.65,2.05
						c1.5,0.93,2.35,2.62,2.21,4.38c-0.45,5.68-1.52,19.33-1.82,23.18c-0.05,0.68-0.38,1.31-0.92,1.73
						c-1.19,0.95-3.4,2.63-4.87,3.75c-0.89,0.67-2.11,0.67-3,0C118.63,228.58,116.42,226.9,115.23,225.94z"></path>
				</g>
				<g>
					<path class="st25" d="M92.77,229.31c-0.68-0.27-1.21-0.82-1.45-1.51c-1.19-3.51-5.12-15.06-6.76-19.88
						c-0.59-1.74-0.12-3.66,1.2-4.94c0.95-0.91,1.96-1.82,3.1-2.75c1.66-1.35,3.83-1.9,5.94-1.5c1.43,0.27,2.74,0.59,4,0.94
						c1.77,0.49,3.09,1.95,3.4,3.76c0.87,5.06,2.92,17.04,3.54,20.71c0.12,0.72-0.08,1.45-0.55,2.01c-1,1.2-2.82,3.26-3.99,4.6
						c-0.67,0.76-1.74,1.04-2.7,0.69C96.83,230.84,94.23,229.89,92.77,229.31z"></path>
				</g>
			</g>
			<path class="st25" d="M121.61,218.23c59.57,0,82.26,36.53,82.37,36.7c2.34,3.09,2.83,7.43,1.35,11.08
				c-2.03,4.4-4.63,8.47-7.54,12.39c-2.06,2.73-4.31,5.36-6.71,7.88c-0.86,0.9,0.28,2.28,1.32,1.6c2.99-1.96,5.85-4.15,8.55-6.56
				c3.95-3.55,7.63-7.58,10.58-12.03c3.95-6.33,3.85-13.48-0.5-20.8c-20.99-36.46-62.86-45.62-89.42-45.62h-0.01
				c-26.56,0-68.43,9.16-89.42,45.62c-4.35,7.32-4.44,14.47-0.5,20.8c2.96,4.45,6.63,8.48,10.58,12.03c2.7,2.41,5.56,4.61,8.55,6.56
				c1.04,0.68,2.18-0.7,1.32-1.6c-2.4-2.53-4.65-5.15-6.71-7.88c-2.91-3.91-5.51-7.99-7.54-12.39c-1.48-3.65-0.99-7.99,1.35-11.08
				C39.35,254.77,62.05,218.23,121.61,218.23L121.61,218.23z"></path>
			<g>
				<path class="st25" d="M112.5,282.19c4.36-1.84,7.01-6.37,7.02-12.2l0.01-14.43c0-4.13-1.36-7.76-3.82-10.22
					c-2.16-2.16-5.01-3.31-8.23-3.31c-0.01,0-0.01,0-0.02,0c-9.2-0.01-18.4-0.02-27.6-0.04h0c-0.78,0-1.4,0.63-1.4,1.4v54.36
					c0,0.59,0.37,1.12,0.93,1.32l0.03,0.01c3.52,1.26,7.1,2.36,10.72,3.3l0,0c0.89,0.23,1.75-0.44,1.75-1.35l0.07-19.73
					c2.08,0.32,4.19,0.61,6.3,0.86c1.85,4.94,3.71,9.94,5.57,14.96l2.82,7.59c0.18,0.5,0.63,0.85,1.16,0.9l0,0
					c3.95,0.43,7.97,0.67,11.95,0.72h0c0.99,0.01,1.68-0.99,1.32-1.91l0,0C118.11,296.84,115.13,289.05,112.5,282.19z
					 M105.86,257.77l-0.03,9.69c0,0.55-0.11,0.97-0.3,1.15c-0.18,0.17-0.52,0.19-0.78,0.17c-4.25-0.26-8.53-0.63-12.75-1.09
					l0.04-11.92c4.16,0.2,8.4,0.35,12.63,0.47C105.3,256.26,105.86,256.39,105.86,257.77z"></path>
				<path class="st25" d="M152.8,266.67c-4.4-0.52-9.08-1.24-13.89-2.14c-1.39-0.28-1.44-0.51-1.45-1.37l-0.02-5.73
					c0-1.38,0.56-1.5,1.19-1.52c3.56-0.09,7.21-0.22,10.86-0.38c0.23-0.01,0.63,0,0.83,0.19c0.17,0.16,0.27,0.54,0.27,1.03
					l0.02,4.49c0,0.82,0.7,1.46,1.51,1.39l0,0c3.52-0.28,7.05-0.6,10.51-0.98l0,0c0.71-0.08,1.25-0.68,1.25-1.39l0-6.38
					c0-7.11-4.96-12.12-12.09-12.18h-15.94c-3.23,0.02-6.09,1.14-8.26,3.3c-2.47,2.46-3.82,6.09-3.82,10.22l0.01,10.41
					c0,6.86,4.63,11.93,12.08,13.23c4.88,0.85,9.64,1.47,14.13,1.86c1.29,0.13,1.29,0.22,1.29,0.94l0.02,6.08
					c0,1.4-0.74,1.72-1.39,1.85c-3.83,0.74-7.75,1.33-11.64,1.77c-0.2,0.02-0.58,0.04-0.75-0.11c-0.17-0.16-0.28-0.57-0.28-1.1
					l-0.02-5.4c0-0.82-0.7-1.46-1.51-1.39l0,0c-3.49,0.27-7.03,0.44-10.54,0.51l0,0c-0.76,0.01-1.38,0.64-1.38,1.4l0.01,7.85
					c0,4.27,1.45,7.92,4.08,10.26c1.9,1.69,4.26,2.57,6.88,2.57c0.47,0,0.95-0.03,1.44-0.09c5.74-0.66,11.48-1.74,17.08-3.21
					c6.66-1.81,11.49-8.26,11.5-15.32v-9.81C164.78,271.62,160.42,267.66,152.8,266.67z"></path>
			</g>
		</g>
	</g>
</g>
</svg>