<svg version="1.1" xmlns="http://www.w3.org/2000/svg" xmlns:xlink="http://www.w3.org/1999/xlink" x="0px" y="0px" viewBox="38.68 124.69 433.19 262.6" style="enable-background:new 0 0 512 512;" xml:space="preserve">
<style type="text/css">
	.st0{fill:none;stroke:#000000;stroke-width:1.6933;stroke-miterlimit:10;}
	.st1{fill:none;stroke:#000000;stroke-width:1.8394;stroke-miterlimit:10;}
	.st2{fill:none;stroke:#000000;stroke-width:1.3728;stroke-miterlimit:10;}
	.st3{fill:#CB2026;}
	.st4{fill:#FFFFFF;}
	.st5{fill:none;stroke:#FFFFFF;stroke-width:2.8887;stroke-miterlimit:10;}
	.st6{fill:none;stroke:#FFFFFF;stroke-width:3.6775;stroke-miterlimit:10;}
	.st7{fill:none;stroke:#FFFFFF;stroke-width:4.6805;stroke-miterlimit:10;}
	.st8{fill:none;stroke:#000000;stroke-width:6;stroke-miterlimit:10;}
	.st9{fill:#CC2127;}
	.st10{fill:#606161;}
	.st11{fill:none;stroke:#CB2026;stroke-width:17;stroke-linecap:round;stroke-miterlimit:10;}
	.st12{fill:none;stroke:#CB2026;stroke-width:17.0296;stroke-linecap:round;stroke-miterlimit:10;}
	.st13{opacity:0.09;}
	.st14{opacity:0.72;fill:#606161;}
	.st15{fill:none;stroke:#000000;stroke-width:4;stroke-linecap:round;stroke-miterlimit:10;}
	.st16{opacity:0.48;fill:#CB2026;}
	.st17{opacity:0.91;fill:#606161;}
	.st18{opacity:0.91;fill:none;stroke:#606161;stroke-width:10;stroke-miterlimit:10;}
	.st19{fill:none;stroke:#606161;stroke-width:6.5274;stroke-miterlimit:10;}
	.st20{fill:none;stroke:#606161;stroke-width:7;stroke-miterlimit:10;}
	.st21{opacity:0.91;fill:#FFFFFF;}
	.st22{opacity:0.48;fill:none;stroke:#14150C;stroke-width:2;stroke-miterlimit:10;}
	.st23{fill:#DF3034;}
	.st24{fill:#1A304D;}
	.st25{fill:#DC2727;}
	.st26{fill:#060707;}
	.st27{fill:#D7282F;}
	.st28{fill:none;stroke:#000000;stroke-width:0.9324;stroke-miterlimit:10;}
</style>
<g id="Layer_1">
</g>
<g id="Layer_2">
	<g>
		<g>
			<g>
				<g>
					<path class="st25" d="M293.61,200.16c-1.1-1.31-1.57-3.03-1.28-4.71l0,0c0.29-1.67,5.92-34.6,8.27-48.34
						c0.72-4.22,3.8-7.64,7.93-8.78c2.93-0.81,5.98-1.56,9.33-2.18c4.91-0.92,9.98,0.36,13.85,3.51c2.66,2.16,5.02,4.28,7.23,6.41
						c3.1,2.97,4.19,7.46,2.81,11.52c-3.86,11.36-12.99,38.22-15.78,46.43c-0.55,1.61-1.77,2.88-3.35,3.5
						c-3.41,1.34-9.48,3.56-13.39,4.98c-2.23,0.81-4.71,0.18-6.28-1.6C300.19,207.78,295.95,202.96,293.61,200.16z"></path>
				</g>
				<g>
					<path class="st25" d="M240.38,199.65c-1.24-0.99-2-2.43-2.12-4.01c-0.7-8.92-3.23-40.99-4.26-54.14
						c-0.32-4.11,1.65-8.07,5.16-10.23c2.65-1.63,5.43-3.23,8.51-4.78c4.77-2.4,10.42-2.4,15.19,0c3.09,1.55,5.87,3.15,8.51,4.78
						c3.51,2.16,5.48,6.12,5.16,10.23c-1.04,13.25-3.55,45.13-4.26,54.11c-0.13,1.59-0.9,3.05-2.14,4.05
						c-2.78,2.23-7.93,6.14-11.38,8.75c-2.07,1.57-4.93,1.57-7,0C248.32,205.8,243.16,201.88,240.38,199.65z"></path>
				</g>
				<g>
					<path class="st25" d="M187.95,207.52c-1.59-0.62-2.82-1.9-3.37-3.52c-2.79-8.2-11.96-35.16-15.78-46.41
						c-1.38-4.06-0.29-8.55,2.81-11.52c2.21-2.12,4.57-4.25,7.23-6.41c3.88-3.14,8.95-4.43,13.86-3.51c3.35,0.63,6.4,1.37,9.33,2.18
						c4.12,1.14,7.2,4.56,7.93,8.78c2.03,11.82,6.81,39.78,8.27,48.35c0.29,1.68-0.18,3.38-1.28,4.69
						c-2.34,2.79-6.58,7.62-9.32,10.73c-1.57,1.78-4.06,2.42-6.3,1.61C197.42,211.07,191.36,208.86,187.95,207.52z"></path>
				</g>
			</g>
			<path class="st25" d="M255.28,181.65c139.04,0,192.01,85.28,192.28,85.65c5.45,7.21,6.61,17.35,3.15,25.86
				c-4.74,10.27-10.81,19.78-17.6,28.91c-4.81,6.38-10.06,12.5-15.67,18.4c-2,2.11,0.66,5.33,3.09,3.73
				c6.97-4.57,13.64-9.69,19.95-15.32c9.22-8.28,17.8-17.69,24.7-28.08c9.21-14.77,8.99-31.46-1.16-48.55
				c-49-85.11-146.73-106.48-208.73-106.48h-0.03c-62,0-159.72,21.38-208.73,106.48c-10.15,17.09-10.37,33.79-1.16,48.55
				c6.9,10.4,15.49,19.8,24.7,28.08c6.31,5.63,12.98,10.75,19.95,15.32c2.43,1.59,5.1-1.63,3.09-3.73
				c-5.6-5.89-10.85-12.02-15.67-18.4c-6.79-9.14-12.86-18.64-17.6-28.91c-3.46-8.51-2.3-18.64,3.15-25.86
				C63.26,266.93,116.24,181.65,255.28,181.65L255.28,181.65z"></path>
			<g>
				<path class="st25" d="M234.01,330.95c10.19-4.29,16.37-14.87,16.38-28.48l0.02-33.67c0-9.64-3.17-18.11-8.92-23.86
					c-5.05-5.05-11.7-7.72-19.22-7.72c-0.01,0-0.03,0-0.04,0c-21.48-0.01-42.96-0.04-64.43-0.08h0c-1.81,0-3.28,1.46-3.28,3.27
					v126.87c0,1.38,0.87,2.61,2.17,3.08l0.07,0.02c8.22,2.94,16.56,5.51,25.01,7.69l0,0c2.07,0.53,4.08-1.02,4.09-3.16l0.17-46.04
					c4.85,0.75,9.77,1.42,14.7,2.01c4.32,11.54,8.66,23.2,13.01,34.91l6.59,17.71c0.43,1.16,1.48,1.98,2.71,2.11l0,0
					c9.21,1,18.6,1.57,27.89,1.68l0,0c2.32,0.03,3.93-2.3,3.09-4.46l0,0C247.11,365.15,240.13,346.95,234.01,330.95z M218.51,273.93
					l-0.07,22.63c0,1.29-0.26,2.27-0.71,2.69c-0.42,0.4-1.22,0.43-1.83,0.4c-9.92-0.61-19.91-1.47-29.75-2.55l0.1-27.81
					c9.71,0.46,19.62,0.83,29.49,1.09C217.2,270.41,218.51,270.71,218.51,273.93z"></path>
				<path class="st25" d="M328.06,294.72c-10.26-1.22-21.18-2.9-32.43-5c-3.24-0.65-3.37-1.2-3.38-3.2l-0.04-13.38
					c-0.01-3.21,1.3-3.51,2.77-3.55c8.3-0.21,16.83-0.51,25.35-0.88c0.53-0.02,1.48,0.01,1.94,0.44c0.4,0.38,0.63,1.25,0.64,2.39
					l0.04,10.49c0.01,1.9,1.63,3.4,3.53,3.25l0,0c8.21-0.65,16.46-1.41,24.54-2.28l0,0c1.66-0.18,2.92-1.58,2.92-3.26l-0.01-14.88
					c0.01-16.59-11.58-28.28-28.22-28.44h-37.21c-7.54,0.04-14.21,2.65-19.27,7.71c-5.76,5.75-8.93,14.22-8.92,23.86l0.02,24.3
					c0,16.01,10.81,27.84,28.2,30.89c11.38,1.98,22.49,3.44,32.98,4.34c3,0.29,3,0.51,3.01,2.2l0.05,14.19
					c0.01,3.27-1.74,4.03-3.26,4.32c-8.94,1.72-18.08,3.11-27.17,4.12c-0.47,0.05-1.34,0.09-1.74-0.27
					c-0.41-0.36-0.65-1.32-0.66-2.57l-0.04-12.6c-0.01-1.9-1.63-3.4-3.53-3.25l0,0c-8.14,0.64-16.42,1.03-24.61,1.18l0,0
					c-1.78,0.03-3.21,1.49-3.21,3.27l0.01,18.33c0,9.98,3.38,18.48,9.52,23.95c4.44,3.95,9.94,6,16.06,6c1.1,0,2.22-0.07,3.35-0.2
					c13.39-1.55,26.79-4.07,39.87-7.49c15.54-4.24,26.83-19.27,26.85-35.76v-22.9C356.03,306.27,345.86,297.03,328.06,294.72z"></path>
			</g>
		</g>
	</g>
</g>
</svg>